<?xml version="1.0" encoding="UTF-8"?> <svg xmlns="http://www.w3.org/2000/svg" width="199" height="41" viewBox="0 0 199 41" fill="none"><path d="M196.265 38C194.858 38 193.393 37.8427 193.217 37.8427C192.689 37.764 190.755 37.3708 190.52 34.7753C190.403 33.2809 190.227 30.8427 190.286 28.7978H188L188.879 26.7528H190.286C190.286 25.6517 190.345 24.9438 190.345 24.9438L194.506 24C194.506 24.8652 194.506 25.809 194.506 26.8315L198.844 26.9101V28.7978H194.565C194.565 30.2135 194.565 31.3933 194.623 32.1011C194.623 32.1011 194.682 35.4045 197.847 35.4045C198.082 35.4045 198.375 35.4045 198.668 35.3258C199.195 35.7978 199.078 37.3708 198.433 37.764C198.023 38 197.144 38 196.265 38Z" fill="#D68528"></path><path d="M177.404 38C173.693 38 169.433 37 169.021 36.6429C168.746 36.3571 171.288 34.9286 172.044 34.7143C172.731 35.1429 175.136 36 177.197 36C178.778 36 179.328 34.3571 177.266 33.7143C175.274 33.0714 167.578 33.0714 169.433 29.3571C170.67 27.5714 174.105 27 175.48 27C175.617 27 175.754 27 175.892 27C175.961 27 176.098 27 176.167 27C180.564 27 184 28.8571 184 28.8571L181.32 30.4286C180.015 29.2857 178.091 28.7857 176.51 28.7857H176.442C174.174 28.7857 173.006 30.7143 175.892 31.2857C177.266 31.5714 179.259 31.7143 181.526 32.2857C186.199 33.7857 183.107 37.1429 179.877 37.6429C179.19 37.9286 178.297 38 177.404 38Z" fill="#D68528"></path><path d="M154.5 29.9014C151.314 29.9014 148.658 31.3099 148.658 33C148.658 34.6901 151.255 36.0986 154.5 36.0986C157.686 36.0986 160.342 34.6901 160.342 33C160.283 31.2394 157.686 29.9014 154.5 29.9014ZM154.5 38C149.248 38 145 35.7465 145 33C145 30.2535 149.248 28 154.5 28C159.752 28 164 30.2535 164 33C163.941 35.7465 159.693 38 154.5 38Z" fill="#D68528"></path><path d="M130.13 29.9947C128.218 29.9947 126.49 30.3386 125.256 30.8889V34.8783C126.49 35.4286 128.218 35.7725 130.13 35.7725C133.831 35.7725 136.854 34.4656 136.854 32.8836C136.916 31.3016 133.893 29.9947 130.13 29.9947ZM125.256 41H121V28.3439H125.256V29.7884C126.799 28.6878 129.081 28 131.672 28C136.237 28 140 30.2011 140 32.8836C140 35.5661 136.299 37.7672 131.672 37.7672C129.081 37.7672 126.799 37.0794 125.256 35.9788V41Z" fill="#D68528"></path><path d="M148.275 17.6364C146.595 17.6364 145.626 16.8182 145.626 14.6364V6.72727C145.626 5.54545 144.011 4.45455 141.297 4.45455C138.584 4.45455 137.033 4.63636 137.033 6.72727V18H122.884C121.463 18 120.817 17.7273 120.817 16.0909V14.5455H131.348C132.898 14.5455 134.191 14.6364 134.191 12.8182V11H122.884C121.463 11 120.817 10.7273 120.817 9.45455V8.18182H132.188C133.609 8.18182 135.224 7.54545 135.224 6.72727V4.45455H102.727C101.499 4.45455 101.499 2.72727 101.499 2.72727V2.27273C101.499 1.18182 100.013 0 97.4933 0C95.0382 0 92.9061 0.909091 92.9061 2.27273V2.72727V2.63636C92.9061 2.63636 92.9061 4.36364 91.6786 4.36364H81.4059C80.1784 4.36364 80.1784 2.63636 80.1784 2.63636V2.72727V2.27273C80.1784 1.18182 78.6924 0 76.1727 0C73.7176 0 71.5855 0.909091 71.5855 2.27273V2.63636C71.5855 2.63636 71.5855 4.36364 70.358 4.36364H39.9923C38.4417 4.36364 37.6018 5.09091 37.6018 6.63636V19.6364C37.6018 20.7273 38.6355 21.9091 41.0906 21.9091H58.0179C59.31 21.9091 60.9898 20.8182 60.9898 19.5455V17.9091H48.1975C47.0345 17.9091 46.1946 17.5455 46.1946 16V14.5455H56.6611C57.8887 14.5455 59.5685 14.5455 59.5685 12.8182V11H48.2621C47.0991 11 46.1946 10.9091 46.1946 9.81818V8.72727H67.5798C69.7765 8.72727 71.5855 9.72727 71.5855 12.7273V19.6364C71.5855 20.7273 73.5884 21.9091 75.9789 21.9091C78.3694 21.9091 80.1784 20.7273 80.1784 19.6364V12.7273C80.1784 11 81.2767 8.72727 83.6672 8.72727H89.5465C91.4848 8.72727 92.9707 10 92.9707 12.6364V19.7273C92.9707 20.8182 94.5213 22 96.9764 22C99.4315 22 101.564 21.0909 101.564 19.7273V12.6364C101.564 10.9091 103.179 8.72727 104.6 8.72727H109.058C110.609 8.72727 112.289 10.0909 112.289 12.7273V19.6364C112.289 20.7273 112.999 21.9091 114.873 21.9091H155.64C157.514 21.9091 159 20.9091 159 19.6364V17.5455H148.275V17.6364ZM30.8826 4.45455H24.2926C22.6128 4.45455 20.9976 5.27273 20.2869 6.72727C19.5762 8.18182 15.2475 17.0909 15.2475 17.0909C15.2475 17.0909 10.7249 7.90909 10.1434 6.72727C9.56197 5.63636 7.55912 4.45455 5.23324 4.45455H0C0 4.45455 8.65746 19 9.10971 19.7273C9.56197 20.4545 11.8232 22 14.989 22C18.1548 22 20.2223 21.1818 21.1268 19.7273C21.9667 18.2727 26.8123 10.0909 26.8123 10.0909V19.7273C26.8123 20.8182 28.169 22 30.8826 22C33.5961 22 35.4051 20.8182 35.4051 19.7273V6.72727C35.4051 5.54545 33.7899 4.45455 30.8826 4.45455Z" fill="#00837B"></path></svg> 